HIERARCHY
ROOT Hips
{
  OFFSET 74.0196 97.4445 -31.1285
  CHANNELS 6 Xposition Yposition Zposition Zrotation Xrotation Yrotation
  JOINT RightUpLeg
  {
    OFFSET -8.9458 -8.66707 0.101652
    CHANNELS 3 Zrotation Xrotation Yrotation
    JOINT RightLeg
    {
      OFFSET -2.94875e-013 -44.4227 1.3727
      CHANNELS 3 Zrotation Xrotation Yrotation
      JOINT RightFoot
      {
        OFFSET 0.253549 -42.0924 -1.46059
        CHANNELS 3 Zrotation Xrotation Yrotation
        JOINT RightToes
        {
          OFFSET 0.04 -4.41509 8.4991
          CHANNELS 3 Zrotation Xrotation Yrotation
          End Site
          {
            OFFSET -0.08 -0.137448 9.77979
          }
        }
      }
    }
  }
  JOINT Spine
  {
    OFFSET -5.68434e-014 11.8905 -6.39488e-014
    CHANNELS 3 Zrotation Xrotation Yrotation
    JOINT Spine1
    {
      OFFSET 5.68434e-014 25.6574 0.127663
      CHANNELS 3 Zrotation Xrotation Yrotation
      JOINT HEad
      {
        OFFSET 4.26326e-014 8.73416 0.011341
        CHANNELS 3 Zrotation Xrotation Yrotation
        End Site
        {
          OFFSET -0.29 12.7742 2.51395
        }
      }
      JOINT LeftShoulder1
      {
        OFFSET 8.99 -0.362252 -0.22
        CHANNELS 3 Zrotation Xrotation Yrotation
        JOINT LeftArm
        {
          OFFSET 10.2827 -0.00338 0.322123
          CHANNELS 3 Zrotation Xrotation Yrotation
          JOINT LeftForeArm
          {
            OFFSET 32.7669 0.099144 -1.42434
            CHANNELS 3 Zrotation Xrotation Yrotation
            JOINT LeftHand
            {
              OFFSET 27.5643 0.085362 1.02216
              CHANNELS 3 Zrotation Xrotation Yrotation
              End Site
              {
                OFFSET 16.7443 -0.6 1.50291
              }
            }
          }
        }
      }
      JOINT RightShoulder
      {
        OFFSET -8.99 -0.362252 -0.22
        CHANNELS 3 Zrotation Xrotation Yrotation
        JOINT RightArm
        {
          OFFSET -10.2827 -0.00338 0.322123
          CHANNELS 3 Zrotation Xrotation Yrotation
          JOINT RightForeArm
          {
            OFFSET -32.8971 0.099144 -1.42434
            CHANNELS 3 Zrotation Xrotation Yrotation
            JOINT RightHand
            {
              OFFSET -27.4921 0.085362 1.02216
              CHANNELS 3 Zrotation Xrotation Yrotation
              End Site
              {
                OFFSET -16.6312 -0.6 1.50291
              }
            }
          }
        }
      }
    }
  }
  JOINT LeftUpLeg
  {
    OFFSET 8.9458 -8.66707 0.101652
    CHANNELS 3 Zrotation Xrotation Yrotation
    JOINT LeftLeg
    {
      OFFSET 7.10543e-014 -44.4227 1.3727
      CHANNELS 3 Zrotation Xrotation Yrotation
      JOINT LeftFoot
      {
        OFFSET -0.253549 -42.0924 -1.46059
        CHANNELS 3 Zrotation Xrotation Yrotation
        JOINT LeftToes
        {
          OFFSET -0.04 -4.41509 8.4991
          CHANNELS 3 Zrotation Xrotation Yrotation
          End Site
          {
            OFFSET 0.08 -0.047448 9.77979
          }
        }
      }
    }
  }
}
MOTION
Frames:	10
Frame Time:	0.0166667
-83.5277 91.0054 71.8693 3.60294 1.76433 152.031 -27.5055 -31.0738 4.7741 17.1859 49.3551 -19.2789 3.22544 17.0497 -0.703075 -11.0844 -29.5212 -5.24564 4.88353 7.24296 -7.94907 1.61158 13.8808 -15.3194 9.54387 -3.57604 -1.16406 -5.03302e-021 -3.88251e-019 1.21329e-020 -61.721 4.19589 -68.7119 -6.69134 11.1847 -83.8066 6.54677 9.62745 -1.04006 26.8406 -4.21954 -17.001 55.0485 -14.7729 27.455 -18.3616 21.4206 138.674 -16.7793 11.4342 -15.3585 23.6869 -3.41542 -11.1436 -13.5799 29.9023 10.2077 -6.39194 23.473 1.57582 60.1991 -58.0355 44.1008 
-82.4918 91.4342 73.6875 2.35913 1.72835 155.984 -30.1533 -27.2388 6.78517 20.26 49.1124 -22.3395 2.15469 16.0683 -0.46115 -10.367 -27.0636 -5.3494 4.96462 6.6518 -6.65958 1.13145 12.977 -12.6923 10.4197 -4.59242 -6.28184 -5.03302e-021 -3.88251e-019 1.21329e-020 -72.6239 -0.109279 -60.8948 -9.75984 22.3359 -92.6268 6.54677 9.62745 -1.04006 26.3249 -4.3883 -17.8533 53.0504 -18.62 29.7244 -19.432 20.2785 139.928 -13.4996 11.5127 -18.9059 23.5088 -5.6661 -11.3923 -11.8312 28.1032 5.98492 -8.21291 22.6636 2.01699 53.7306 -57.1056 37.5826 
-81.3401 91.886 75.4974 1.01724 1.38877 159.968 -32.0569 -22.8633 8.91656 22.3255 47.7705 -23.7904 2.08218 14.2743 -0.425454 -9.32139 -24.0532 -5.14763 4.74704 5.92643 -5.18979 0.541902 11.8134 -9.77347 11.4462 -5.43008 -11.7863 -5.03302e-021 -3.88251e-019 1.21329e-020 -79.8885 -5.56423 -54.8916 -12.5951 31.7393 -97.8874 6.54677 9.62745 -1.04006 25.5628 -4.40729 -18.3369 51.3259 -23.501 32.6768 -21.2662 19.5656 139.223 -9.73261 11.3472 -22.857 22.9845 -8.15892 -11.5397 -9.99597 26.246 2.41123 -9.65704 21.4618 2.30494 46.2846 -54.8446 30.6882 
-80.1605 92.2816 77.3599 -0.291381 0.807583 163.593 -33.1049 -18.5338 10.8717 22.9293 45.6952 -23.5728 2.75555 11.7633 -0.510163 -8.4104 -21.2779 -5.06554 4.28494 5.18283 -3.60141 -0.131536 10.5535 -6.70982 12.5029 -6.15839 -17.2725 -5.03302e-021 -3.88251e-019 1.21329e-020 -81.8087 -9.08647 -50.9152 -14.3714 36.0952 -100.907 6.54677 9.62745 -1.04006 24.4361 -4.1735 -18.1184 50.1757 -29.2947 36.5118 -24.0486 19.9588 135.905 -5.95599 10.9255 -26.8657 22.2565 -10.6879 -11.5152 -8.30679 24.4327 -0.0492585 -10.6088 20.0583 2.42528 38.9555 -51.3723 24.3864 
-79.0433 92.5688 79.3373 -1.473 0.142393 166.55 -33.4199 -14.7397 12.3628 22.0776 43.2769 -22.1047 3.76212 8.87891 -0.604966 -8.03826 -19.6285 -5.39716 3.7074 4.53176 -1.97039 -0.805335 9.39168 -3.62912 13.4483 -6.83712 -22.4255 -5.03302e-021 -3.88251e-019 1.21329e-020 -80.4241 -10.4856 -48.3673 -14.9365 36.876 -102.898 6.54677 9.62745 -1.04006 22.775 -3.61136 -16.891 49.4978 -35.243 41.2279 -27.5815 21.9782 129.417 -2.6155 10.333 -30.5598 21.4748 -13.0967 -11.26 -7.01346 22.9329 -1.11671 -11.0352 18.732 2.40859 32.5675 -47.1972 19.2434 
-78.0494 92.736 81.4724 -2.48885 -0.413502 168.689 -33.2507 -11.7509 13.1957 20.1216 40.7989 -19.9867 4.72813 6.11893 -0.64906 -8.48293 -19.8341 -6.24242 3.14988 4.05624 -0.382988 -1.36563 8.50786 -0.648554 14.1588 -7.51982 -27.0147 -5.03302e-021 -3.88251e-019 1.21329e-020 -78.3561 -11.1166 -46.8773 -14.9556 36.879 -104.278 6.54677 9.62745 -1.04006 20.4244 -2.7364 -14.5012 48.3206 -40.1816 45.9784 -30.8114 25.618 119.131 -0.118164 9.74399 -33.3987 20.751 -15.3015 -10.7631 -6.30177 22.1266 -0.799711 -10.9545 17.7593 2.30267 27.5774 -43.1077 15.3918 
-77.1919 92.8059 83.7703 -3.33632 -0.703356 170.043 -32.8391 -9.61344 13.2979 17.5783 38.4315 -17.7636 5.39102 3.93335 -0.640887 -9.86198 -22.1229 -7.59537 2.70531 3.80922 1.06684 -1.71159 8.0359 2.09961 14.5612 -8.26256 -30.8533 -5.03302e-021 -3.88251e-019 1.21329e-020 -76.3963 -11.2455 -46.2296 -14.719 36.7304 -105.576 6.54677 9.62745 -1.04006 17.3736 -1.69976 -11.0813 35.9583 -33.8987 44.4358 -29.7517 19.4671 96.0474 2.38716 9.06296 -34.7848 20.1503 -17.2839 -10.0957 -6.28061 22.3849 0.643814 -10.4175 17.3319 2.14693 24.2013 -39.9661 12.7454 
-76.4453 92.8152 86.1915 -4.01726 -0.659066 170.803 -32.3328 -8.21776 12.7036 14.9574 36.3034 -15.8171 5.61095 2.54116 -0.604508 -12.058 -26.0173 -9.36457 2.41643 3.81194 2.27976 -1.78695 8.03877 4.44941 14.6431 -9.1096 -33.7689 -5.03302e-021 -3.88251e-019 1.21329e-020 -75.0652 -11.1952 -46.1575 -14.4245 36.8396 -107.098 6.54677 9.62745 -1.04006 13.8935 -0.747667 -7.12628 19.2973 -20.2195 40.9722 -27.1089 4.84963 65.9647 4.11813 8.67547 -33.0239 19.7101 -19.0598 -9.41571 -7.02158 23.9315 2.86866 -9.51843 17.5271 1.96554 22.5005 -38.446 11.1696 
-75.7697 92.7963 88.6543 -4.51987 -0.31986 171.253 -31.7745 -7.38493 11.5383 12.6337 34.5481 -14.3597 5.37778 1.88216 -0.557278 -14.6781 -30.5259 -11.296 2.29537 4.04363 3.1602 -1.58523 8.48523 6.21244 14.4428 -10.0547 -35.6165 -5.03302e-021 -3.88251e-019 1.21329e-020 -74.5085 -11.1753 -46.3943 -14.1771 37.3645 -108.912 6.54677 9.62745 -1.04006 10.5427 -0.0796859 -3.40037 9.28907 -11.3811 39.5104 -25.2508 -6.0329 43.0757 3.16 9.07358 -28.6333 19.4537 -20.6405 -8.91869 -8.59388 26.7468 5.60361 -8.42243 18.3188 1.77795 22.4003 -38.8052 10.5538 
-75.1209 92.7589 91.0594 -4.82378 0.185919 171.68 -31.1373 -6.97693 10.0069 10.8164 33.3531 -13.4855 4.80105 1.67582 -0.501931 -17.1857 -34.7013 -13.0031 2.35297 4.43688 3.62987 -1.12916 9.24517 7.22603 14.0203 -11.0075 -36.3316 -5.03302e-021 -3.88251e-019 1.21329e-020 -74.5523 -11.246 -46.7146 -14.0234 38.2787 -110.902 6.54677 9.62745 -1.04006 7.96828 0.268256 -0.657575 5.58261 -8.46113 39.0787 -23.9492 -12.1998 30.0822 0.394207 9.71104 -23.7177 19.3924 -22.0187 -8.73229 -11.0394 30.5871 8.67016 -7.39616 19.5861 1.6197 23.6899 -40.8196 10.8015 
